<?xml version="1.0" standalone="no"?>
<!DOCTYPE svg PUBLIC "-//W3C//DTD SVG 20010904//EN"
 "http://www.w3.org/TR/2001/REC-SVG-20010904/DTD/svg10.dtd">
<svg version="1.0" xmlns="http://www.w3.org/2000/svg"
 width="512.000000pt" height="512.000000pt" viewBox="0 0 512.000000 512.000000"
 preserveAspectRatio="xMidYMid meet">
<metadata>
Created by potrace 1.14, written by Peter Selinger 2001-2017
</metadata>
<g transform="translate(0.000000,512.000000) scale(0.100000,-0.100000)"
fill="#000000" stroke="none">
<path d="M0 4680 l0 -440 40 0 40 0 0 80 0 80 40 0 40 0 0 40 0 40 40 0 40 0
0 40 0 40 40 0 40 0 0 40 0 40 40 0 40 0 0 80 0 80 80 0 80 0 0 40 0 40 80 0
80 0 0 40 0 40 160 0 160 0 0 40 0 40 160 0 160 0 0 -160 0 -160 40 0 40 0 0
-40 0 -40 -360 0 -360 0 0 -40 0 -40 -40 0 -40 0 0 -40 0 -40 40 0 40 0 0 -80
0 -80 -40 0 -40 0 0 -120 0 -120 40 0 40 0 0 -40 0 -40 40 0 40 0 0 -40 0 -40
120 0 120 0 0 -80 0 -80 40 0 40 0 0 -200 0 -200 -40 0 -40 0 0 -80 0 -80 40
0 40 0 0 -40 0 -40 40 0 40 0 0 -40 0 -40 40 0 40 0 0 -40 0 -40 80 0 80 0 0
-40 0 -40 40 0 40 0 0 -40 0 -40 40 0 40 0 0 -80 0 -80 -40 0 -40 0 0 -120 0
-120 -40 0 -40 0 0 40 0 40 -160 0 -160 0 0 -40 0 -40 -200 0 -200 0 0 -40 0
-40 -80 0 -80 0 0 -40 0 -40 -80 0 -80 0 0 -40 0 -40 -80 0 -80 0 0 -40 0 -40
-80 0 -80 0 0 -40 0 -40 -40 0 -40 0 0 -120 0 -120 40 0 40 0 0 40 0 40 80 0
80 0 0 40 0 40 80 0 80 0 0 40 0 40 80 0 80 0 0 40 0 40 80 0 80 0 0 40 0 40
200 0 200 0 0 40 0 40 160 0 160 0 0 40 0 40 40 0 40 0 0 -80 0 -80 40 0 40 0
0 -40 0 -40 40 0 40 0 0 -40 0 -40 40 0 40 0 0 -40 0 -40 80 0 80 0 0 -40 0
-40 40 0 40 0 0 -80 0 -80 40 0 40 0 0 -320 0 -320 40 0 40 0 0 -40 0 -40 80
0 80 0 0 -40 0 -40 40 0 40 0 0 -40 0 -40 40 0 40 0 0 -40 0 -40 -80 0 -80 0
0 -240 0 -240 80 0 80 0 0 240 0 240 40 0 40 0 0 40 0 40 80 0 80 0 0 40 0 40
40 0 40 0 0 40 0 40 80 0 80 0 0 40 0 40 40 0 40 0 0 320 0 320 40 0 40 0 0
80 0 80 40 0 40 0 0 40 0 40 80 0 80 0 0 40 0 40 40 0 40 0 0 40 0 40 40 0 40
0 0 40 0 40 40 0 40 0 0 80 0 80 40 0 40 0 0 -40 0 -40 160 0 160 0 0 -40 0
-40 200 0 200 0 0 -40 0 -40 80 0 80 0 0 -40 0 -40 80 0 80 0 0 -40 0 -40 80
0 80 0 0 -40 0 -40 80 0 80 0 0 -40 0 -40 40 0 40 0 0 120 0 120 -40 0 -40 0
0 40 0 40 -80 0 -80 0 0 40 0 40 -80 0 -80 0 0 40 0 40 -80 0 -80 0 0 40 0 40
-80 0 -80 0 0 40 0 40 -200 0 -200 0 0 40 0 40 -160 0 -160 0 0 -40 0 -40 -40
0 -40 0 0 120 0 120 -40 0 -40 0 0 80 0 80 40 0 40 0 0 40 0 40 40 0 40 0 0
40 0 40 80 0 80 0 0 40 0 40 40 0 40 0 0 40 0 40 40 0 40 0 0 40 0 40 40 0 40
0 0 80 0 80 -40 0 -40 0 0 200 0 200 40 0 40 0 0 80 0 80 120 0 120 0 0 40 0
40 40 0 40 0 0 40 0 40 40 0 40 0 0 120 0 120 -40 0 -40 0 0 80 0 80 40 0 40
0 0 40 0 40 -40 0 -40 0 0 40 0 40 -360 0 -360 0 0 40 0 40 40 0 40 0 0 160 0
160 160 0 160 0 0 -40 0 -40 160 0 160 0 0 -40 0 -40 80 0 80 0 0 -40 0 -40
80 0 80 0 0 -80 0 -80 40 0 40 0 0 -40 0 -40 40 0 40 0 0 -40 0 -40 40 0 40 0
0 -40 0 -40 40 0 40 0 0 -80 0 -80 40 0 40 0 0 440 0 440 -800 0 -800 0 0
-160 0 -160 -200 0 -200 0 0 40 0 40 -560 0 -560 0 0 -40 0 -40 -200 0 -200 0
0 160 0 160 -800 0 -800 0 0 -440z m1520 -320 l0 -40 200 0 200 0 0 -40 0 -40
80 0 80 0 0 -40 0 -40 80 0 80 0 0 -40 0 -40 80 0 80 0 0 -40 0 -40 80 0 80 0
0 -40 0 -40 80 0 80 0 0 -40 0 -40 80 0 80 0 0 -40 0 -40 80 0 80 0 0 -40 0
-40 80 0 80 0 0 -40 0 -40 80 0 80 0 0 -40 0 -40 80 0 80 0 0 -40 0 -40 80 0
80 0 0 -40 0 -40 40 0 40 0 0 -80 0 -80 -80 0 -80 0 0 -40 0 -40 -40 0 -40 0
0 -40 0 -40 -40 0 -40 0 0 -40 0 -40 -40 0 -40 0 0 -40 0 -40 -40 0 -40 0 0
40 0 40 -80 0 -80 0 0 40 0 40 -80 0 -80 0 0 40 0 40 -80 0 -80 0 0 40 0 40
-80 0 -80 0 0 40 0 40 -80 0 -80 0 0 40 0 40 -80 0 -80 0 0 40 0 40 -80 0 -80
0 0 40 0 40 -80 0 -80 0 0 40 0 40 -80 0 -80 0 0 40 0 40 -80 0 -80 0 0 40 0
40 -80 0 -80 0 0 40 0 40 -40 0 -40 0 0 40 0 40 -80 0 -80 0 0 40 0 40 -40 0
-40 0 0 40 0 40 -40 0 -40 0 0 40 0 40 -120 0 -120 0 0 40 0 40 40 0 40 0 0
80 0 80 280 0 280 0 0 -40z m1520 0 l0 -40 280 0 280 0 0 40 0 40 280 0 280 0
0 -80 0 -80 40 0 40 0 0 -40 0 -40 -120 0 -120 0 0 -40 0 -40 -40 0 -40 0 0
-40 0 -40 -40 0 -40 0 0 -80 0 -80 -40 0 -40 0 0 -120 0 -120 -80 0 -80 0 0
40 0 40 -80 0 -80 0 0 40 0 40 -80 0 -80 0 0 40 0 40 -80 0 -80 0 0 40 0 40
-80 0 -80 0 0 40 0 40 -80 0 -80 0 0 40 0 40 -80 0 -80 0 0 40 0 40 -80 0 -80
0 0 40 0 40 -80 0 -80 0 0 40 0 40 -80 0 -80 0 0 40 0 40 440 0 440 0 0 -40z
m-1520 -800 l0 -40 80 0 80 0 0 -40 0 -40 80 0 80 0 0 -40 0 -40 80 0 80 0 0
-40 0 -40 80 0 80 0 0 -40 0 -40 80 0 80 0 0 -40 0 -40 80 0 80 0 0 -40 0 -40
80 0 80 0 0 -40 0 -40 80 0 80 0 0 -40 0 -40 80 0 80 0 0 -40 0 -40 80 0 80 0
0 -40 0 -40 80 0 80 0 0 -80 0 -80 40 0 40 0 0 -160 0 -160 -40 0 -40 0 0 -40
0 -40 -40 0 -40 0 0 40 0 40 -80 0 -80 0 0 40 0 40 -80 0 -80 0 0 40 0 40 -80
0 -80 0 0 40 0 40 -120 0 -120 0 0 40 0 40 -80 0 -80 0 0 40 0 40 -80 0 -80 0
0 40 0 40 -80 0 -80 0 0 40 0 40 -80 0 -80 0 0 40 0 40 -40 0 -40 0 0 40 0 40
-40 0 -40 0 0 40 0 40 -40 0 -40 0 0 40 0 40 -40 0 -40 0 0 40 0 40 -80 0 -80
0 0 200 0 200 80 0 80 0 0 -40z m480 -1040 l0 -40 80 0 80 0 0 -40 0 -40 80 0
80 0 0 -40 0 -40 80 0 80 0 0 -40 0 -40 120 0 120 0 0 -40 0 -40 80 0 80 0 0
-40 0 -40 40 0 40 0 0 -40 0 -40 -40 0 -40 0 0 -120 0 -120 -40 0 -40 0 0
-120 0 -120 -40 0 -40 0 0 40 0 40 -40 0 -40 0 0 40 0 40 -40 0 -40 0 0 40 0
40 -40 0 -40 0 0 40 0 40 -80 0 -80 0 0 40 0 40 -40 0 -40 0 0 40 0 40 -40 0
-40 0 0 40 0 40 -80 0 -80 0 0 40 0 40 -80 0 -80 0 0 40 0 40 -40 0 -40 0 0
160 0 160 120 0 120 0 0 -40z m400 -960 l0 -40 40 0 40 0 0 -40 0 -40 40 0 40
0 0 -40 0 -40 40 0 40 0 0 -40 0 -40 40 0 40 0 0 -80 0 -80 -40 0 -40 0 0 -40
0 -40 -80 0 -80 0 0 40 0 40 -40 0 -40 0 0 40 0 40 -40 0 -40 0 0 200 0 200
40 0 40 0 0 -40z"/>
<path d="M720 1920 l0 -80 360 0 360 0 0 80 0 80 -360 0 -360 0 0 -80z"/>
<path d="M3680 1920 l0 -80 360 0 360 0 0 80 0 80 -360 0 -360 0 0 -80z"/>
<path d="M640 1640 l0 -40 -40 0 -40 0 0 -40 0 -40 -80 0 -80 0 0 -40 0 -40
-40 0 -40 0 0 -40 0 -40 -40 0 -40 0 0 -120 0 -120 40 0 40 0 0 -40 0 -40 40
0 40 0 0 -120 0 -120 40 0 40 0 0 -80 0 -80 40 0 40 0 0 -40 0 -40 40 0 40 0
0 -40 0 -40 40 0 40 0 0 -40 0 -40 160 0 160 0 0 40 0 40 40 0 40 0 0 40 0 40
40 0 40 0 0 40 0 40 40 0 40 0 0 120 0 120 80 0 80 0 0 40 0 40 40 0 40 0 0
40 0 40 40 0 40 0 0 40 0 40 40 0 40 0 0 160 0 160 -40 0 -40 0 0 40 0 40 -40
0 -40 0 0 80 0 80 -440 0 -440 0 0 -40z m800 -80 l0 -40 40 0 40 0 0 -40 0
-40 40 0 40 0 0 -160 0 -160 -40 0 -40 0 0 -40 0 -40 -40 0 -40 0 0 -40 0 -40
-120 0 -120 0 0 -160 0 -160 -40 0 -40 0 0 -40 0 -40 -40 0 -40 0 0 -40 0 -40
-160 0 -160 0 0 40 0 40 -40 0 -40 0 0 40 0 40 -40 0 -40 0 0 80 0 80 -40 0
-40 0 0 120 0 120 -40 0 -40 0 0 40 0 40 -40 0 -40 0 0 120 0 120 40 0 40 0 0
40 0 40 80 0 80 0 0 40 0 40 80 0 80 0 0 40 0 40 360 0 360 0 0 -40z"/>
<path d="M3600 1600 l0 -80 -40 0 -40 0 0 -40 0 -40 -40 0 -40 0 0 -160 0
-160 40 0 40 0 0 -40 0 -40 40 0 40 0 0 -40 0 -40 40 0 40 0 0 -40 0 -40 80 0
80 0 0 -120 0 -120 40 0 40 0 0 -40 0 -40 40 0 40 0 0 -40 0 -40 40 0 40 0 0
-40 0 -40 160 0 160 0 0 40 0 40 40 0 40 0 0 40 0 40 40 0 40 0 0 40 0 40 40
0 40 0 0 80 0 80 40 0 40 0 0 120 0 120 40 0 40 0 0 40 0 40 40 0 40 0 0 120
0 120 -40 0 -40 0 0 40 0 40 -40 0 -40 0 0 40 0 40 -80 0 -80 0 0 40 0 40 -40
0 -40 0 0 40 0 40 -440 0 -440 0 0 -80z m800 -40 l0 -40 80 0 80 0 0 -40 0
-40 80 0 80 0 0 -40 0 -40 40 0 40 0 0 -120 0 -120 -40 0 -40 0 0 -40 0 -40
-40 0 -40 0 0 -120 0 -120 -40 0 -40 0 0 -80 0 -80 -40 0 -40 0 0 -40 0 -40
-40 0 -40 0 0 -40 0 -40 -160 0 -160 0 0 40 0 40 -40 0 -40 0 0 40 0 40 -40 0
-40 0 0 160 0 160 -120 0 -120 0 0 40 0 40 -40 0 -40 0 0 40 0 40 -40 0 -40 0
0 160 0 160 40 0 40 0 0 40 0 40 40 0 40 0 0 40 0 40 360 0 360 0 0 -40z"/>
<path d="M1680 840 l0 -40 -40 0 -40 0 0 -40 0 -40 -40 0 -40 0 0 -40 0 -40
-40 0 -40 0 0 -40 0 -40 -40 0 -40 0 0 -40 0 -40 -40 0 -40 0 0 -40 0 -40 -40
0 -40 0 0 -40 0 -40 -40 0 -40 0 0 -80 0 -80 80 0 80 0 0 40 0 40 40 0 40 0 0
40 0 40 40 0 40 0 0 40 0 40 40 0 40 0 0 40 0 40 40 0 40 0 0 40 0 40 40 0 40
0 0 40 0 40 40 0 40 0 0 40 0 40 40 0 40 0 0 80 0 80 -80 0 -80 0 0 -40z"/>
<path d="M3280 800 l0 -80 40 0 40 0 0 -40 0 -40 40 0 40 0 0 -40 0 -40 40 0
40 0 0 -40 0 -40 40 0 40 0 0 -40 0 -40 40 0 40 0 0 -40 0 -40 40 0 40 0 0
-40 0 -40 40 0 40 0 0 -40 0 -40 80 0 80 0 0 80 0 80 -40 0 -40 0 0 40 0 40
-40 0 -40 0 0 40 0 40 -40 0 -40 0 0 40 0 40 -40 0 -40 0 0 40 0 40 -40 0 -40
0 0 40 0 40 -40 0 -40 0 0 40 0 40 -40 0 -40 0 0 40 0 40 -80 0 -80 0 0 -80z"/>
<path d="M2000 400 l0 -320 80 0 80 0 0 320 0 320 -80 0 -80 0 0 -320z"/>
<path d="M2640 480 l0 -240 80 0 80 0 0 240 0 240 -80 0 -80 0 0 -240z"/>
<path d="M2960 400 l0 -320 80 0 80 0 0 320 0 320 -80 0 -80 0 0 -320z"/>
</g>
</svg>
